<?xml version="1.0" standalone="no"?>
<!DOCTYPE svg PUBLIC "-//W3C//DTD SVG 20010904//EN"
 "http://www.w3.org/TR/2001/REC-SVG-20010904/DTD/svg10.dtd">
<svg version="1.0" xmlns="http://www.w3.org/2000/svg"
 width="196.000000pt" height="196.000000pt" viewBox="0 0 196.000000 196.000000"
 preserveAspectRatio="xMidYMid meet">
<metadata>
Created by potrace 1.11, written by Peter Selinger 2001-2013
</metadata>
<g transform="translate(0.000000,196.000000) scale(0.100000,-0.100000)"
fill="#000000" stroke="none">
<path d="M427 1343 c-14 -24 -88 -265 -83 -270 12 -12 35 8 41 37 l7 31 61 -3
c60 -3 62 -4 71 -35 6 -23 15 -33 29 -33 11 0 17 5 15 13 -3 6 -24 69 -47 140
-39 115 -45 127 -66 127 -13 0 -26 -3 -28 -7z m30 -161 c-21 -2 -41 -2 -43 1
-2 2 6 32 18 68 l21 64 22 -65 22 -65 -40 -3z"/>
<path d="M610 1169 c0 -90 2 -100 18 -97 14 3 18 16 20 77 3 71 4 73 32 84 17
6 30 17 30 24 0 16 -32 17 -48 1 -9 -9 -15 -9 -24 0 -24 24 -28 10 -28 -89z"/>
<path d="M760 1170 c0 -93 1 -100 20 -100 18 0 20 7 20 69 0 76 15 105 53 99
30 -4 47 -44 47 -110 0 -45 3 -58 15 -58 12 0 15 15 15 74 0 59 -4 78 -21 100
-22 28 -56 34 -92 15 -16 -9 -22 -9 -25 0 -2 6 -10 11 -18 11 -11 0 -14 -20
-14 -100z"/>
<path d="M1024 1255 c-57 -39 -53 -140 8 -171 39 -20 92 -11 113 19 14 20 14
22 0 25 -9 2 -24 -3 -34 -12 -22 -20 -41 -20 -69 0 -43 30 -28 44 46 44 38 0
71 3 74 6 11 10 -11 69 -33 87 -26 21 -77 22 -105 2z m88 -32 c29 -26 21 -33
-37 -33 -59 0 -64 4 -38 32 20 22 51 23 75 1z"/>
<path d="M913 899 c-15 -15 -5 -39 17 -39 22 0 32 24 17 39 -6 6 -14 11 -17
11 -3 0 -11 -5 -17 -11z"/>
<path d="M406 879 c-103 -81 -55 -249 71 -249 24 0 53 5 63 10 14 7 25 7 39
-2 25 -15 39 -3 25 20 -8 12 -7 25 2 47 28 65 7 141 -48 175 -45 27 -117 27
-152 -1z m145 -38 c64 -64 21 -181 -66 -181 -55 0 -95 44 -95 105 0 95 96 140
161 76z"/>
<path d="M1068 816 c-16 -8 -28 -11 -28 -5 0 5 -7 9 -15 9 -12 0 -15 -17 -15
-95 0 -88 1 -95 20 -95 18 0 20 7 20 69 0 61 3 72 22 85 28 20 33 20 52 0 12
-11 16 -35 16 -85 0 -62 2 -69 20 -69 18 0 20 7 20 59 0 74 -14 115 -46 130
-31 14 -33 14 -66 -3z"/>
<path d="M1503 823 c-61 -12 -86 -121 -38 -168 32 -33 91 -34 125 -3 22 21 23
23 6 26 -10 2 -23 -1 -29 -7 -17 -17 -62 -13 -80 7 -31 35 -21 42 58 42 61 0
75 3 75 15 0 32 -30 73 -61 84 -18 6 -32 10 -33 10 -1 -1 -11 -4 -23 -6z m58
-42 c32 -26 22 -33 -42 -29 l-54 3 23 23 c27 27 43 28 73 3z"/>
<path d="M680 747 c0 -91 15 -117 69 -117 20 0 42 5 48 11 8 8 13 8 17 0 18
-29 26 -3 26 84 0 78 -3 95 -15 95 -11 0 -15 -13 -15 -54 0 -79 -13 -106 -49
-106 -39 0 -51 23 -51 99 0 48 -3 61 -15 61 -12 0 -15 -15 -15 -73z"/>
<path d="M910 725 c0 -88 1 -95 20 -95 19 0 20 7 20 95 0 88 -1 95 -20 95 -19
0 -20 -7 -20 -95z"/>
<path d="M1240 805 c0 -11 12 -15 45 -15 l46 0 -51 -75 c-27 -41 -50 -77 -50
-80 0 -3 34 -5 75 -5 60 0 75 3 75 15 0 11 -12 15 -51 15 l-51 0 46 64 c70 98
70 96 -13 96 -56 0 -71 -3 -71 -15z"/>
</g>
</svg>
